# xmcd CD database file generated by LOLA_Freedb v0.9beta0
# 
# Track frame offsets:
#      150
#      14481
#      31569
#      45710
#      63410
#      83378
#      96617
#      116642
#      129947
#      152413
# 
# Disc length: 2274 seconds
# 
# Revision: 1 
# Processed by: cddbd v1.5.2PL0 Copyright (c) Steve Scherf et al.
# Submitted via: LOLA_Freedb v0.9beta0
# 
DISCID=7008e00a
DTITLE=Danny Gaither - Sing A Song Of Love
DYEAR=1974
DGENRE=
TTITLE0=Danny Gaither - Take This Whole World
TTITLE1=Danny Gaither - For Those Tears I Died (Come To The Water)
TTITLE2=Danny Gaither - Sing A Song Of Love
TTITLE3=Danny Gaither - O Love That Will Not Let Me Go
TTITLE4=Danny Gaither - Love All The Brethren
TTITLE5=Danny Gaither - Climbin' Higher And Higher
TTITLE6=Danny Gaither - Satisfied
TTITLE7=Danny Gaither - This Is The Day The Lord Has Made
TTITLE8=Danny Gaither - Come On Home
TTITLE9=Danny Gaither - The Lord's Prayer
EXTD=Male Vocal
EXTT0=Male Vocal
EXTT1=
EXTT2=
EXTT3=
EXTT4=
EXTT5=
EXTT6=
EXTT7=
EXTT8=
EXTT9=
PLAYORDER=
